<mxfile host="app.diagrams.net" agent="Mozilla/5.0 (Windows NT 10.0; Win64; x64) AppleWebKit/537.36 (KHTML, like Gecko) Chrome/134.0.0.0 Safari/537.36 Edg/134.0.0.0" version="26.1.2" pages="2">
  <diagram name="Page-1" id="-ow4DpQ6KdscyZ0m3crN">
    <mxGraphModel dx="4231" dy="576" grid="1" gridSize="10" guides="1" tooltips="1" connect="1" arrows="1" fold="1" page="1" pageScale="1" pageWidth="850" pageHeight="1100" math="0" shadow="0">
      <root>
        <mxCell id="0" />
        <mxCell id="1" parent="0" />
        <mxCell id="ckAOM5WRGEyRrlcUhF3o-15" value="&lt;div&gt;OC Windows Server 2022 Datacener Evalution 21H2&lt;/div&gt;" style="verticalAlign=top;align=left;spacingTop=8;spacingLeft=2;spacingRight=12;shape=cube;size=10;direction=south;fontStyle=4;html=1;whiteSpace=wrap;" parent="1" vertex="1">
          <mxGeometry x="-1150" y="1420" width="1720" height="1260" as="geometry" />
        </mxCell>
        <mxCell id="ckAOM5WRGEyRrlcUhF3o-14" value="&lt;div&gt;Docker Engine 27.1.1&lt;/div&gt;" style="verticalAlign=top;align=left;spacingTop=8;spacingLeft=2;spacingRight=12;shape=cube;size=10;direction=south;fontStyle=4;html=1;whiteSpace=wrap;movable=1;resizable=1;rotatable=1;deletable=1;editable=1;locked=0;connectable=1;" parent="1" vertex="1">
          <mxGeometry x="-1120" y="1470" width="1660" height="990" as="geometry" />
        </mxCell>
        <mxCell id="ckAOM5WRGEyRrlcUhF3o-2" value="ОС Linux. Debian GNU/Linux 12" style="verticalAlign=top;align=left;spacingTop=8;spacingLeft=2;spacingRight=12;shape=cube;size=10;direction=south;fontStyle=4;html=1;whiteSpace=wrap;" parent="1" vertex="1">
          <mxGeometry x="-1080" y="2115" width="260" height="240" as="geometry" />
        </mxCell>
        <mxCell id="ckAOM5WRGEyRrlcUhF3o-29" value="" style="endArrow=block;html=1;rounded=0;startArrow=block;startFill=1;endFill=1;entryX=0.003;entryY=0.282;entryDx=0;entryDy=0;entryPerimeter=0;exitX=1.017;exitY=0.349;exitDx=0;exitDy=0;exitPerimeter=0;" parent="1" source="ckAOM5WRGEyRrlcUhF3o-2" target="ckAOM5WRGEyRrlcUhF3o-27" edge="1">
          <mxGeometry relative="1" as="geometry">
            <mxPoint x="-801" y="2415" as="sourcePoint" />
            <mxPoint x="-870" y="2475" as="targetPoint" />
          </mxGeometry>
        </mxCell>
        <mxCell id="ckAOM5WRGEyRrlcUhF3o-30" value="&lt;div&gt;WebSocket&lt;/div&gt;" style="edgeLabel;resizable=0;html=1;;align=center;verticalAlign=middle;" parent="ckAOM5WRGEyRrlcUhF3o-29" connectable="0" vertex="1">
          <mxGeometry relative="1" as="geometry">
            <mxPoint y="-12" as="offset" />
          </mxGeometry>
        </mxCell>
        <mxCell id="ckAOM5WRGEyRrlcUhF3o-31" value="" style="endArrow=block;html=1;rounded=0;startArrow=block;startFill=1;endFill=1;entryX=0.002;entryY=0.776;entryDx=0;entryDy=0;entryPerimeter=0;" parent="1" target="ckAOM5WRGEyRrlcUhF3o-27" edge="1">
          <mxGeometry relative="1" as="geometry">
            <mxPoint x="-1017" y="2356" as="sourcePoint" />
            <mxPoint x="-1026" y="2530" as="targetPoint" />
          </mxGeometry>
        </mxCell>
        <mxCell id="ckAOM5WRGEyRrlcUhF3o-32" value="HTTP 1.1" style="edgeLabel;resizable=0;html=1;;align=center;verticalAlign=middle;" parent="ckAOM5WRGEyRrlcUhF3o-31" connectable="0" vertex="1">
          <mxGeometry relative="1" as="geometry">
            <mxPoint x="6" y="-10" as="offset" />
          </mxGeometry>
        </mxCell>
        <mxCell id="ckAOM5WRGEyRrlcUhF3o-37" value="&lt;div&gt;ОС Linux. Debian GNU/Linux 12&lt;/div&gt;&lt;div&gt;{ApiGateway}&lt;/div&gt;" style="verticalAlign=top;align=left;spacingTop=8;spacingLeft=2;spacingRight=12;shape=cube;size=10;direction=south;fontStyle=4;html=1;whiteSpace=wrap;" parent="1" vertex="1">
          <mxGeometry x="-630" y="2135" width="320" height="200" as="geometry" />
        </mxCell>
        <mxCell id="ckAOM5WRGEyRrlcUhF3o-48" value="" style="endArrow=block;html=1;rounded=0;exitX=0.328;exitY=0.999;exitDx=0;exitDy=0;exitPerimeter=0;startArrow=block;startFill=1;endFill=1;" parent="1" source="ckAOM5WRGEyRrlcUhF3o-37" edge="1">
          <mxGeometry relative="1" as="geometry">
            <mxPoint x="-655.5" y="2090" as="sourcePoint" />
            <mxPoint x="-820" y="2200" as="targetPoint" />
          </mxGeometry>
        </mxCell>
        <mxCell id="ckAOM5WRGEyRrlcUhF3o-49" value="HTTP 1.1" style="edgeLabel;resizable=0;html=1;;align=center;verticalAlign=middle;" parent="ckAOM5WRGEyRrlcUhF3o-48" connectable="0" vertex="1">
          <mxGeometry relative="1" as="geometry" />
        </mxCell>
        <mxCell id="ckAOM5WRGEyRrlcUhF3o-51" value="" style="endArrow=block;html=1;rounded=0;entryX=0.66;entryY=1.003;entryDx=0;entryDy=0;entryPerimeter=0;startArrow=block;startFill=1;endFill=1;exitX=0.633;exitY=-0.001;exitDx=0;exitDy=0;exitPerimeter=0;" parent="1" source="ckAOM5WRGEyRrlcUhF3o-2" target="ckAOM5WRGEyRrlcUhF3o-37" edge="1">
          <mxGeometry relative="1" as="geometry">
            <mxPoint x="-430" y="2150" as="sourcePoint" />
            <mxPoint x="-609" y="2290" as="targetPoint" />
          </mxGeometry>
        </mxCell>
        <mxCell id="ckAOM5WRGEyRrlcUhF3o-52" value="WebSocket" style="edgeLabel;resizable=0;html=1;;align=center;verticalAlign=middle;" parent="ckAOM5WRGEyRrlcUhF3o-51" connectable="0" vertex="1">
          <mxGeometry relative="1" as="geometry">
            <mxPoint x="-2" y="-2" as="offset" />
          </mxGeometry>
        </mxCell>
        <mxCell id="ckAOM5WRGEyRrlcUhF3o-73" value="" style="endArrow=block;html=1;rounded=0;startArrow=block;startFill=1;endFill=1;exitX=0;exitY=0;exitDx=190;exitDy=169.655;exitPerimeter=0;elbow=vertical;edgeStyle=orthogonalEdgeStyle;entryX=0.001;entryY=0.506;entryDx=0;entryDy=0;entryPerimeter=0;" parent="1" source="ckAOM5WRGEyRrlcUhF3o-42" target="ckAOM5WRGEyRrlcUhF3o-37" edge="1">
          <mxGeometry relative="1" as="geometry">
            <mxPoint x="-510" y="1837" as="sourcePoint" />
            <mxPoint x="-509" y="1840" as="targetPoint" />
            <Array as="points">
              <mxPoint x="-620" y="2030" />
              <mxPoint x="-472" y="2030" />
            </Array>
          </mxGeometry>
        </mxCell>
        <mxCell id="ckAOM5WRGEyRrlcUhF3o-74" value="HTTP 1.1" style="edgeLabel;resizable=0;html=1;;align=center;verticalAlign=middle;" parent="ckAOM5WRGEyRrlcUhF3o-73" connectable="0" vertex="1">
          <mxGeometry relative="1" as="geometry">
            <mxPoint x="144" y="49" as="offset" />
          </mxGeometry>
        </mxCell>
        <mxCell id="ckAOM5WRGEyRrlcUhF3o-75" value="" style="endArrow=block;html=1;rounded=0;startArrow=block;startFill=1;endFill=1;exitX=0;exitY=0;exitDx=190;exitDy=170;exitPerimeter=0;elbow=vertical;edgeStyle=orthogonalEdgeStyle;entryX=0.004;entryY=0.281;entryDx=0;entryDy=0;entryPerimeter=0;" parent="1" source="ckAOM5WRGEyRrlcUhF3o-46" target="ckAOM5WRGEyRrlcUhF3o-37" edge="1">
          <mxGeometry relative="1" as="geometry">
            <mxPoint x="-129" y="1750.6" as="sourcePoint" />
            <mxPoint x="-421" y="2134" as="targetPoint" />
            <Array as="points" />
          </mxGeometry>
        </mxCell>
        <mxCell id="ckAOM5WRGEyRrlcUhF3o-76" value="HTTP 1.1" style="edgeLabel;resizable=0;html=1;;align=center;verticalAlign=middle;" parent="ckAOM5WRGEyRrlcUhF3o-75" connectable="0" vertex="1">
          <mxGeometry relative="1" as="geometry">
            <mxPoint x="-1" y="11" as="offset" />
          </mxGeometry>
        </mxCell>
        <mxCell id="ckAOM5WRGEyRrlcUhF3o-77" value="" style="endArrow=block;html=1;rounded=0;startArrow=block;startFill=1;endFill=1;elbow=vertical;edgeStyle=orthogonalEdgeStyle;exitX=0;exitY=0;exitDx=125;exitDy=330;exitPerimeter=0;entryX=0.002;entryY=0.096;entryDx=0;entryDy=0;entryPerimeter=0;" parent="1" source="ckAOM5WRGEyRrlcUhF3o-44" target="ckAOM5WRGEyRrlcUhF3o-37" edge="1">
          <mxGeometry relative="1" as="geometry">
            <mxPoint x="-250" y="1830" as="sourcePoint" />
            <mxPoint x="-340" y="2130" as="targetPoint" />
            <Array as="points">
              <mxPoint x="-341" y="2055" />
            </Array>
          </mxGeometry>
        </mxCell>
        <mxCell id="ckAOM5WRGEyRrlcUhF3o-78" value="HTTP 1.1" style="edgeLabel;resizable=0;html=1;;align=center;verticalAlign=middle;" parent="ckAOM5WRGEyRrlcUhF3o-77" connectable="0" vertex="1">
          <mxGeometry relative="1" as="geometry">
            <mxPoint x="-23" y="24" as="offset" />
          </mxGeometry>
        </mxCell>
        <mxCell id="ckAOM5WRGEyRrlcUhF3o-84" value="" style="endArrow=block;html=1;rounded=0;startArrow=block;startFill=1;endFill=1;exitX=0;exitY=0;exitDx=200;exitDy=165;exitPerimeter=0;edgeStyle=orthogonalEdgeStyle;" parent="1" source="ckAOM5WRGEyRrlcUhF3o-37" edge="1">
          <mxGeometry relative="1" as="geometry">
            <mxPoint x="-334" y="2009" as="sourcePoint" />
            <mxPoint x="-211" y="2380" as="targetPoint" />
            <Array as="points">
              <mxPoint x="-475" y="2380" />
            </Array>
          </mxGeometry>
        </mxCell>
        <mxCell id="ckAOM5WRGEyRrlcUhF3o-85" value="WebSocket" style="edgeLabel;resizable=0;html=1;;align=center;verticalAlign=middle;" parent="ckAOM5WRGEyRrlcUhF3o-84" connectable="0" vertex="1">
          <mxGeometry relative="1" as="geometry">
            <mxPoint x="-2" y="-2" as="offset" />
          </mxGeometry>
        </mxCell>
        <mxCell id="ckAOM5WRGEyRrlcUhF3o-86" value="" style="endArrow=block;html=1;rounded=0;startArrow=block;startFill=1;endFill=1;exitX=0.373;exitY=1.002;exitDx=0;exitDy=0;exitPerimeter=0;elbow=vertical;entryX=0;entryY=0;entryDx=95;entryDy=0;entryPerimeter=0;edgeStyle=orthogonalEdgeStyle;" parent="1" source="ckAOM5WRGEyRrlcUhF3o-39" target="ckAOM5WRGEyRrlcUhF3o-37" edge="1">
          <mxGeometry relative="1" as="geometry">
            <mxPoint x="180" y="2179" as="sourcePoint" />
            <mxPoint x="-310" y="2198" as="targetPoint" />
          </mxGeometry>
        </mxCell>
        <mxCell id="ckAOM5WRGEyRrlcUhF3o-87" value="HTTP 1.1" style="edgeLabel;resizable=0;html=1;;align=center;verticalAlign=middle;" parent="ckAOM5WRGEyRrlcUhF3o-86" connectable="0" vertex="1">
          <mxGeometry relative="1" as="geometry" />
        </mxCell>
        <mxCell id="xe0UmYvgqOULLllQZo8k-4" value="Application Server" style="verticalAlign=top;align=left;spacingTop=8;spacingLeft=2;spacingRight=12;shape=cube;size=10;direction=south;fontStyle=4;html=1;whiteSpace=wrap;" parent="1" vertex="1">
          <mxGeometry x="-610" y="2195" width="271.25" height="120" as="geometry" />
        </mxCell>
        <mxCell id="ckAOM5WRGEyRrlcUhF3o-38" value="ASP.NET Core Web API 8.0.400&lt;div&gt;Ocelot 23.3.3&lt;/div&gt;" style="shape=module;align=left;spacingLeft=20;align=center;verticalAlign=top;whiteSpace=wrap;html=1;" parent="1" vertex="1">
          <mxGeometry x="-590" y="2242" width="210" height="53" as="geometry" />
        </mxCell>
        <mxCell id="ckAOM5WRGEyRrlcUhF3o-53" value="" style="group" parent="1" vertex="1" connectable="0">
          <mxGeometry x="210" y="2052" width="300" height="190" as="geometry" />
        </mxCell>
        <mxCell id="ckAOM5WRGEyRrlcUhF3o-35" value="ОС Linux. Debian GNU/Linux 12" style="verticalAlign=top;align=left;spacingTop=8;spacingLeft=2;spacingRight=12;shape=cube;size=10;direction=south;fontStyle=4;html=1;whiteSpace=wrap;" parent="ckAOM5WRGEyRrlcUhF3o-53" vertex="1">
          <mxGeometry width="240" height="190" as="geometry" />
        </mxCell>
        <mxCell id="xe0UmYvgqOULLllQZo8k-5" value="Database Server" style="verticalAlign=top;align=left;spacingTop=8;spacingLeft=2;spacingRight=12;shape=cube;size=10;direction=south;fontStyle=4;html=1;whiteSpace=wrap;" parent="ckAOM5WRGEyRrlcUhF3o-53" vertex="1">
          <mxGeometry x="25" y="40" width="180" height="130" as="geometry" />
        </mxCell>
        <mxCell id="ckAOM5WRGEyRrlcUhF3o-36" value="&lt;font face=&quot;Times New Roman&quot;&gt;&lt;span style=&quot;font-size: 14px;&quot;&gt;Redis 7.4.0&lt;/span&gt;&lt;/font&gt;" style="shape=module;align=left;spacingLeft=20;align=center;verticalAlign=top;whiteSpace=wrap;html=1;" parent="ckAOM5WRGEyRrlcUhF3o-53" vertex="1">
          <mxGeometry x="40" y="80" width="133.84" height="70" as="geometry" />
        </mxCell>
        <mxCell id="ckAOM5WRGEyRrlcUhF3o-54" value="" style="group" parent="1" vertex="1" connectable="0">
          <mxGeometry x="-180" y="1500" width="321.29" height="210" as="geometry" />
        </mxCell>
        <mxCell id="ckAOM5WRGEyRrlcUhF3o-33" value="ОС Linux. Debian GNU/Linux 12" style="verticalAlign=top;align=left;spacingTop=8;spacingLeft=2;spacingRight=12;shape=cube;size=10;direction=south;fontStyle=4;html=1;whiteSpace=wrap;" parent="ckAOM5WRGEyRrlcUhF3o-54" vertex="1">
          <mxGeometry width="279.83322580645165" height="210" as="geometry" />
        </mxCell>
        <mxCell id="xe0UmYvgqOULLllQZo8k-2" value="Database Server" style="verticalAlign=top;align=left;spacingTop=8;spacingLeft=2;spacingRight=12;shape=cube;size=10;direction=south;fontStyle=4;html=1;whiteSpace=wrap;" parent="ckAOM5WRGEyRrlcUhF3o-54" vertex="1">
          <mxGeometry x="25.91048387096774" y="50" width="222.8301612903226" height="130" as="geometry" />
        </mxCell>
        <mxCell id="xe0UmYvgqOULLllQZo8k-1" value="" style="group" parent="ckAOM5WRGEyRrlcUhF3o-54" vertex="1" connectable="0">
          <mxGeometry x="93.27774193548387" y="27.5" width="228.01225806451615" height="145" as="geometry" />
        </mxCell>
        <mxCell id="ckAOM5WRGEyRrlcUhF3o-34" value="&lt;div&gt;MS SQL Server 2019&amp;nbsp;&lt;/div&gt;&lt;div&gt;&amp;nbsp;(RTM) 15.0.2000.5&lt;/div&gt;" style="shape=module;align=left;spacingLeft=20;align=center;verticalAlign=top;whiteSpace=wrap;html=1;" parent="xe0UmYvgqOULLllQZo8k-1" vertex="1">
          <mxGeometry x="-41.45677419354839" y="70" width="165.82709677419356" height="60" as="geometry" />
        </mxCell>
        <mxCell id="ckAOM5WRGEyRrlcUhF3o-55" value="" style="group" parent="1" vertex="1" connectable="0">
          <mxGeometry x="-210" y="2010" width="330" height="197" as="geometry" />
        </mxCell>
        <mxCell id="ckAOM5WRGEyRrlcUhF3o-44" value="&lt;div&gt;ОС Linux. Debian GNU/Linux 12&lt;/div&gt;&lt;div&gt;{Authentication Service}&lt;/div&gt;" style="verticalAlign=top;align=left;spacingTop=8;spacingLeft=2;spacingRight=12;shape=cube;size=10;direction=south;fontStyle=4;html=1;whiteSpace=wrap;" parent="ckAOM5WRGEyRrlcUhF3o-55" vertex="1">
          <mxGeometry y="-80" width="330" height="240" as="geometry" />
        </mxCell>
        <mxCell id="xe0UmYvgqOULLllQZo8k-21" value="" style="group" parent="ckAOM5WRGEyRrlcUhF3o-55" vertex="1" connectable="0">
          <mxGeometry x="21.29" y="-20" width="278.71" height="160" as="geometry" />
        </mxCell>
        <mxCell id="xe0UmYvgqOULLllQZo8k-22" value="Application Server" style="verticalAlign=top;align=left;spacingTop=8;spacingLeft=2;spacingRight=12;shape=cube;size=10;direction=south;fontStyle=4;html=1;whiteSpace=wrap;" parent="xe0UmYvgqOULLllQZo8k-21" vertex="1">
          <mxGeometry width="278.71" height="160" as="geometry" />
        </mxCell>
        <mxCell id="xe0UmYvgqOULLllQZo8k-23" value="ASP.NET Core Web API 8.0.400&lt;div&gt;Entity Framework Core 8.0.8&lt;/div&gt;&lt;div&gt;&lt;div&gt;StackExchange.Redis 2.8.16&lt;/div&gt;&lt;/div&gt;&lt;div&gt;MimeKit 4.7.1.1&lt;/div&gt;&lt;div&gt;&amp;nbsp;JwtBearer 8.0.7&lt;/div&gt;&lt;div&gt;BCrypt.Net-Next 4.0.3&lt;/div&gt;" style="shape=module;align=left;spacingLeft=20;align=center;verticalAlign=top;whiteSpace=wrap;html=1;" parent="xe0UmYvgqOULLllQZo8k-21" vertex="1">
          <mxGeometry x="18.23" y="40" width="227.04" height="98.67" as="geometry" />
        </mxCell>
        <mxCell id="ckAOM5WRGEyRrlcUhF3o-56" value="" style="group" parent="1" vertex="1" connectable="0">
          <mxGeometry x="-210" y="2190" width="351.29" height="250" as="geometry" />
        </mxCell>
        <mxCell id="ckAOM5WRGEyRrlcUhF3o-39" value="ОС Linux. Debian GNU/Linux 12&lt;br&gt;&lt;div&gt;{Game Service}&lt;/div&gt;" style="verticalAlign=top;align=left;spacingTop=8;spacingLeft=2;spacingRight=12;shape=cube;size=10;direction=south;fontStyle=4;html=1;whiteSpace=wrap;" parent="ckAOM5WRGEyRrlcUhF3o-56" vertex="1">
          <mxGeometry width="330" height="240" as="geometry" />
        </mxCell>
        <mxCell id="xe0UmYvgqOULLllQZo8k-18" value="" style="group" parent="ckAOM5WRGEyRrlcUhF3o-56" vertex="1" connectable="0">
          <mxGeometry x="21.29" y="55" width="330" height="160" as="geometry" />
        </mxCell>
        <mxCell id="xe0UmYvgqOULLllQZo8k-19" value="Application Server" style="verticalAlign=top;align=left;spacingTop=8;spacingLeft=2;spacingRight=12;shape=cube;size=10;direction=south;fontStyle=4;html=1;whiteSpace=wrap;" parent="xe0UmYvgqOULLllQZo8k-18" vertex="1">
          <mxGeometry width="280" height="160" as="geometry" />
        </mxCell>
        <mxCell id="xe0UmYvgqOULLllQZo8k-20" value="ASP.NET Core Web API 8.0.400&lt;div&gt;Entity Framework Core 8.0.8&lt;/div&gt;&lt;div&gt;StackExchange.Redis 2.8.16&lt;/div&gt;&lt;div&gt;MimeKit 4.7.1.1&lt;/div&gt;&lt;div&gt;SignalR 8.0.7&lt;/div&gt;&lt;div&gt;&lt;br&gt;&lt;/div&gt;" style="shape=module;align=left;spacingLeft=20;align=center;verticalAlign=top;whiteSpace=wrap;html=1;" parent="xe0UmYvgqOULLllQZo8k-18" vertex="1">
          <mxGeometry x="18.8" y="46.5" width="231.2" height="93.5" as="geometry" />
        </mxCell>
        <mxCell id="ckAOM5WRGEyRrlcUhF3o-62" value="" style="group" parent="1" vertex="1" connectable="0">
          <mxGeometry x="-780" y="1550" width="329.31" height="230" as="geometry" />
        </mxCell>
        <mxCell id="ckAOM5WRGEyRrlcUhF3o-42" value="ОС Linux. Debian GNU/Linux 12&lt;div&gt;{Profile Service}&lt;/div&gt;" style="verticalAlign=top;align=left;spacingTop=8;spacingLeft=2;spacingRight=12;shape=cube;size=10;direction=south;fontStyle=4;html=1;whiteSpace=wrap;" parent="ckAOM5WRGEyRrlcUhF3o-62" vertex="1">
          <mxGeometry y="40" width="329.31" height="190" as="geometry" />
        </mxCell>
        <mxCell id="xe0UmYvgqOULLllQZo8k-27" value="Application Server" style="verticalAlign=top;align=left;spacingTop=8;spacingLeft=2;spacingRight=12;shape=cube;size=10;direction=south;fontStyle=4;html=1;whiteSpace=wrap;" parent="ckAOM5WRGEyRrlcUhF3o-62" vertex="1">
          <mxGeometry x="21.890000000000015" y="90" width="278.71" height="120" as="geometry" />
        </mxCell>
        <mxCell id="xe0UmYvgqOULLllQZo8k-28" value="ASP.NET Core Web API 8.0.400&lt;div&gt;Entity Framework Core 8.0.8&lt;/div&gt;&lt;div&gt;MimeKit 4.7.1.1&lt;br&gt;&lt;/div&gt;" style="shape=module;align=left;spacingLeft=20;align=center;verticalAlign=top;whiteSpace=wrap;html=1;" parent="ckAOM5WRGEyRrlcUhF3o-62" vertex="1">
          <mxGeometry x="41.41" y="132" width="227.04" height="60" as="geometry" />
        </mxCell>
        <mxCell id="ckAOM5WRGEyRrlcUhF3o-81" value="" style="endArrow=block;html=1;rounded=0;startArrow=block;startFill=1;endFill=1;entryX=0;entryY=0;entryDx=90;entryDy=0;entryPerimeter=0;edgeStyle=orthogonalEdgeStyle;" parent="1" edge="1">
          <mxGeometry relative="1" as="geometry">
            <mxPoint x="-180" y="1630" as="sourcePoint" />
            <mxPoint x="-450.69000000000005" y="1630" as="targetPoint" />
            <Array as="points">
              <mxPoint x="-180" y="1630" />
            </Array>
          </mxGeometry>
        </mxCell>
        <mxCell id="ckAOM5WRGEyRrlcUhF3o-82" value="TCP" style="edgeLabel;resizable=0;html=1;;align=center;verticalAlign=middle;" parent="ckAOM5WRGEyRrlcUhF3o-81" connectable="0" vertex="1">
          <mxGeometry relative="1" as="geometry">
            <mxPoint x="5" y="-1" as="offset" />
          </mxGeometry>
        </mxCell>
        <mxCell id="ckAOM5WRGEyRrlcUhF3o-93" value="" style="endArrow=block;html=1;rounded=0;exitX=0.385;exitY=1.001;exitDx=0;exitDy=0;exitPerimeter=0;startArrow=block;startFill=1;endFill=1;entryX=0;entryY=0;entryDx=115.00000000000001;entryDy=0;entryPerimeter=0;edgeStyle=orthogonalEdgeStyle;" parent="1" source="ckAOM5WRGEyRrlcUhF3o-35" target="ckAOM5WRGEyRrlcUhF3o-44" edge="1">
          <mxGeometry relative="1" as="geometry">
            <mxPoint x="309" y="1695" as="sourcePoint" />
            <mxPoint x="60" y="1765" as="targetPoint" />
          </mxGeometry>
        </mxCell>
        <mxCell id="ckAOM5WRGEyRrlcUhF3o-94" value="TCP" style="edgeLabel;resizable=0;html=1;;align=center;verticalAlign=middle;" parent="ckAOM5WRGEyRrlcUhF3o-93" connectable="0" vertex="1">
          <mxGeometry relative="1" as="geometry" />
        </mxCell>
        <mxCell id="ckAOM5WRGEyRrlcUhF3o-95" value="" style="endArrow=block;html=1;rounded=0;exitX=0.732;exitY=1;exitDx=0;exitDy=0;exitPerimeter=0;startArrow=block;startFill=1;endFill=1;entryX=0;entryY=0;entryDx=70;entryDy=0;entryPerimeter=0;edgeStyle=orthogonalEdgeStyle;" parent="1" source="ckAOM5WRGEyRrlcUhF3o-35" target="ckAOM5WRGEyRrlcUhF3o-39" edge="1">
          <mxGeometry relative="1" as="geometry">
            <mxPoint x="222" y="2053" as="sourcePoint" />
            <mxPoint x="50" y="1960" as="targetPoint" />
          </mxGeometry>
        </mxCell>
        <mxCell id="ckAOM5WRGEyRrlcUhF3o-96" value="TCP" style="edgeLabel;resizable=0;html=1;;align=center;verticalAlign=middle;" parent="ckAOM5WRGEyRrlcUhF3o-95" connectable="0" vertex="1">
          <mxGeometry relative="1" as="geometry" />
        </mxCell>
        <mxCell id="ckAOM5WRGEyRrlcUhF3o-98" value="" style="endArrow=block;html=1;rounded=0;startArrow=block;startFill=1;endFill=1;edgeStyle=orthogonalEdgeStyle;exitX=0;exitY=0;exitDx=100;exitDy=0;exitPerimeter=0;" parent="1" source="ckAOM5WRGEyRrlcUhF3o-33" edge="1">
          <mxGeometry relative="1" as="geometry">
            <mxPoint x="150" y="2102" as="sourcePoint" />
            <mxPoint x="120" y="2354" as="targetPoint" />
            <Array as="points">
              <mxPoint x="500" y="1600" />
              <mxPoint x="500" y="2354" />
            </Array>
          </mxGeometry>
        </mxCell>
        <mxCell id="ckAOM5WRGEyRrlcUhF3o-99" value="TCP" style="edgeLabel;resizable=0;html=1;;align=center;verticalAlign=middle;" parent="ckAOM5WRGEyRrlcUhF3o-98" connectable="0" vertex="1">
          <mxGeometry relative="1" as="geometry">
            <mxPoint y="-114" as="offset" />
          </mxGeometry>
        </mxCell>
        <mxCell id="ckAOM5WRGEyRrlcUhF3o-107" value="" style="endArrow=block;html=1;rounded=0;startArrow=block;startFill=1;endFill=1;entryX=0;entryY=0;entryDx=0;entryDy=160;entryPerimeter=0;edgeStyle=orthogonalEdgeStyle;exitX=0;exitY=0;exitDx=210;exitDy=140;exitPerimeter=0;" parent="1" source="ckAOM5WRGEyRrlcUhF3o-33" target="ckAOM5WRGEyRrlcUhF3o-44" edge="1">
          <mxGeometry relative="1" as="geometry">
            <mxPoint x="410" y="1740" as="sourcePoint" />
            <mxPoint x="70" y="1987.85" as="targetPoint" />
            <Array as="points">
              <mxPoint x="-40" y="1750" />
              <mxPoint x="-40" y="1750" />
            </Array>
          </mxGeometry>
        </mxCell>
        <mxCell id="ckAOM5WRGEyRrlcUhF3o-108" value="TCP" style="edgeLabel;resizable=0;html=1;;align=center;verticalAlign=middle;" parent="ckAOM5WRGEyRrlcUhF3o-107" connectable="0" vertex="1">
          <mxGeometry relative="1" as="geometry">
            <mxPoint y="-2" as="offset" />
          </mxGeometry>
        </mxCell>
        <mxCell id="xe0UmYvgqOULLllQZo8k-31" style="edgeStyle=orthogonalEdgeStyle;rounded=0;orthogonalLoop=1;jettySize=auto;html=1;endArrow=block;endFill=1;startArrow=block;startFill=1;exitX=0;exitY=0;exitDx=0;exitDy=160;exitPerimeter=0;entryX=0.831;entryY=0.999;entryDx=0;entryDy=0;entryPerimeter=0;" parent="1" source="ckAOM5WRGEyRrlcUhF3o-46" edge="1" target="ckAOM5WRGEyRrlcUhF3o-33">
          <mxGeometry relative="1" as="geometry">
            <mxPoint x="-180" y="1730" as="targetPoint" />
            <Array as="points">
              <mxPoint x="-390" y="1675" />
            </Array>
          </mxGeometry>
        </mxCell>
        <mxCell id="xe0UmYvgqOULLllQZo8k-32" value="TCP" style="edgeLabel;html=1;align=center;verticalAlign=middle;resizable=0;points=[];" parent="xe0UmYvgqOULLllQZo8k-31" vertex="1" connectable="0">
          <mxGeometry x="0.0469" y="2" relative="1" as="geometry">
            <mxPoint x="35" as="offset" />
          </mxGeometry>
        </mxCell>
        <mxCell id="xe0UmYvgqOULLllQZo8k-38" value="" style="group" parent="1" vertex="1" connectable="0">
          <mxGeometry x="-1060" y="2156" width="240" height="180" as="geometry" />
        </mxCell>
        <mxCell id="xe0UmYvgqOULLllQZo8k-36" value="Web Server" style="verticalAlign=top;align=left;spacingTop=8;spacingLeft=2;spacingRight=12;shape=cube;size=10;direction=south;fontStyle=4;html=1;whiteSpace=wrap;" parent="xe0UmYvgqOULLllQZo8k-38" vertex="1">
          <mxGeometry width="210" height="180" as="geometry" />
        </mxCell>
        <mxCell id="xe0UmYvgqOULLllQZo8k-37" value="" style="group" parent="xe0UmYvgqOULLllQZo8k-38" vertex="1" connectable="0">
          <mxGeometry x="20" y="40" width="220" height="120" as="geometry" />
        </mxCell>
        <mxCell id="ckAOM5WRGEyRrlcUhF3o-3" value="&lt;div&gt;&lt;span style=&quot;font-size: 14px;&quot;&gt;&lt;font face=&quot;Helvetica&quot;&gt;Nginx 1.27.3&lt;/font&gt;&lt;/span&gt;&lt;/div&gt;" style="shape=module;align=left;spacingLeft=20;align=center;verticalAlign=top;whiteSpace=wrap;html=1;" parent="xe0UmYvgqOULLllQZo8k-37" vertex="1">
          <mxGeometry width="160" height="120" as="geometry" />
        </mxCell>
        <mxCell id="ckAOM5WRGEyRrlcUhF3o-12" value="" style="group" parent="xe0UmYvgqOULLllQZo8k-37" vertex="1" connectable="0">
          <mxGeometry x="20" y="30" width="200" height="80" as="geometry" />
        </mxCell>
        <mxCell id="ckAOM5WRGEyRrlcUhF3o-8" value="" style="shape=note;whiteSpace=wrap;html=1;backgroundOutline=1;darkOpacity=0.05;size=15;" parent="ckAOM5WRGEyRrlcUhF3o-12" vertex="1">
          <mxGeometry x="80" width="40" height="50" as="geometry" />
        </mxCell>
        <mxCell id="ckAOM5WRGEyRrlcUhF3o-9" value="nginx.conf" style="text;html=1;align=center;verticalAlign=middle;whiteSpace=wrap;rounded=0;" parent="ckAOM5WRGEyRrlcUhF3o-12" vertex="1">
          <mxGeometry x="70" y="50" width="60" height="30" as="geometry" />
        </mxCell>
        <mxCell id="ckAOM5WRGEyRrlcUhF3o-10" value="" style="shape=note;whiteSpace=wrap;html=1;backgroundOutline=1;darkOpacity=0.05;size=15;" parent="ckAOM5WRGEyRrlcUhF3o-12" vertex="1">
          <mxGeometry x="10" width="40" height="50" as="geometry" />
        </mxCell>
        <mxCell id="ckAOM5WRGEyRrlcUhF3o-11" value="bundle.js" style="text;html=1;align=center;verticalAlign=middle;whiteSpace=wrap;rounded=0;" parent="ckAOM5WRGEyRrlcUhF3o-12" vertex="1">
          <mxGeometry y="50" width="60" height="30" as="geometry" />
        </mxCell>
        <mxCell id="xe0UmYvgqOULLllQZo8k-41" value="" style="group" parent="1" vertex="1" connectable="0">
          <mxGeometry x="-1065" y="2530" width="215" height="160" as="geometry" />
        </mxCell>
        <mxCell id="ckAOM5WRGEyRrlcUhF3o-27" value="&lt;div style=&quot;text-align: center;&quot;&gt;Microsoft Edge&amp;nbsp;&lt;span style=&quot;background-color: transparent; color: light-dark(rgb(0, 0, 0), rgb(255, 255, 255));&quot;&gt;131.0.2903.112&lt;/span&gt;&lt;/div&gt;" style="verticalAlign=top;align=left;spacingTop=8;spacingLeft=2;spacingRight=12;shape=cube;size=10;direction=south;fontStyle=4;html=1;whiteSpace=wrap;" parent="xe0UmYvgqOULLllQZo8k-41" vertex="1">
          <mxGeometry width="215" height="120" as="geometry" />
        </mxCell>
        <mxCell id="ckAOM5WRGEyRrlcUhF3o-28" value="React 18.3.1&lt;div&gt;Vite 5.4.0&lt;/div&gt;" style="shape=module;align=left;spacingLeft=20;align=center;verticalAlign=top;whiteSpace=wrap;html=1;" parent="xe0UmYvgqOULLllQZo8k-41" vertex="1">
          <mxGeometry x="25" y="50" width="150" height="50" as="geometry" />
        </mxCell>
        <mxCell id="1UBmldHhn7O4GViiC7BB-2" value="" style="group" parent="1" vertex="1" connectable="0">
          <mxGeometry x="-560" y="1810" width="330" height="190" as="geometry" />
        </mxCell>
        <mxCell id="ckAOM5WRGEyRrlcUhF3o-46" value="&lt;div&gt;ОС Linux. Debian GNU/Linux 12&lt;/div&gt;&lt;div&gt;{Notification Service}&lt;/div&gt;" style="verticalAlign=top;align=left;spacingTop=8;spacingLeft=2;spacingRight=12;shape=cube;size=10;direction=south;fontStyle=4;html=1;whiteSpace=wrap;" parent="1UBmldHhn7O4GViiC7BB-2" vertex="1">
          <mxGeometry width="330" height="190" as="geometry" />
        </mxCell>
        <mxCell id="xe0UmYvgqOULLllQZo8k-25" value="Application Server" style="verticalAlign=top;align=left;spacingTop=8;spacingLeft=2;spacingRight=12;shape=cube;size=10;direction=south;fontStyle=4;html=1;whiteSpace=wrap;" parent="1UBmldHhn7O4GViiC7BB-2" vertex="1">
          <mxGeometry x="20" y="50" width="278.71" height="120" as="geometry" />
        </mxCell>
        <mxCell id="xe0UmYvgqOULLllQZo8k-26" value="ASP.NET Core Web API 8.0.400&lt;div&gt;Entity Framework Core 8.0.8&lt;/div&gt;&lt;div&gt;MimeKit 4.7.1.1&lt;br&gt;&lt;/div&gt;" style="shape=module;align=left;spacingLeft=20;align=center;verticalAlign=top;whiteSpace=wrap;html=1;" parent="1UBmldHhn7O4GViiC7BB-2" vertex="1">
          <mxGeometry x="39.51999999999998" y="92" width="227.04" height="60" as="geometry" />
        </mxCell>
        <mxCell id="1UBmldHhn7O4GViiC7BB-3" value="" style="group" parent="1" vertex="1" connectable="0">
          <mxGeometry x="-1010.0000000000001" y="1780" width="329.31" height="230" as="geometry" />
        </mxCell>
        <mxCell id="1UBmldHhn7O4GViiC7BB-4" value="ОС Linux. Debian GNU/Linux 12&lt;div&gt;{Admin Service}&lt;/div&gt;" style="verticalAlign=top;align=left;spacingTop=8;spacingLeft=2;spacingRight=12;shape=cube;size=10;direction=south;fontStyle=4;html=1;whiteSpace=wrap;" parent="1UBmldHhn7O4GViiC7BB-3" vertex="1">
          <mxGeometry y="40" width="329.31" height="190" as="geometry" />
        </mxCell>
        <mxCell id="1UBmldHhn7O4GViiC7BB-5" value="Application Server" style="verticalAlign=top;align=left;spacingTop=8;spacingLeft=2;spacingRight=12;shape=cube;size=10;direction=south;fontStyle=4;html=1;whiteSpace=wrap;" parent="1UBmldHhn7O4GViiC7BB-3" vertex="1">
          <mxGeometry x="21.890000000000015" y="90" width="278.71" height="120" as="geometry" />
        </mxCell>
        <mxCell id="1UBmldHhn7O4GViiC7BB-6" value="ASP.NET Core Web API 8.0.400&lt;div&gt;Entity Framework Core 8.0.8&lt;/div&gt;&lt;div&gt;MimeKit 4.7.1.1&lt;br&gt;&lt;/div&gt;" style="shape=module;align=left;spacingLeft=20;align=center;verticalAlign=top;whiteSpace=wrap;html=1;" parent="1UBmldHhn7O4GViiC7BB-3" vertex="1">
          <mxGeometry x="41.41" y="132" width="227.04" height="60" as="geometry" />
        </mxCell>
        <mxCell id="1UBmldHhn7O4GViiC7BB-7" value="" style="endArrow=block;html=1;rounded=0;exitX=0.283;exitY=0.997;exitDx=0;exitDy=0;exitPerimeter=0;startArrow=block;startFill=1;endFill=1;edgeStyle=orthogonalEdgeStyle;entryX=0;entryY=0;entryDx=0;entryDy=159.655;entryPerimeter=0;" parent="1" source="ckAOM5WRGEyRrlcUhF3o-33" target="1UBmldHhn7O4GViiC7BB-4" edge="1">
          <mxGeometry relative="1" as="geometry">
            <mxPoint x="-199.66" y="1578.09" as="sourcePoint" />
            <mxPoint x="-860" y="1820" as="targetPoint" />
            <Array as="points">
              <mxPoint x="-840" y="1560" />
            </Array>
          </mxGeometry>
        </mxCell>
        <mxCell id="1UBmldHhn7O4GViiC7BB-8" value="TCP" style="edgeLabel;resizable=0;html=1;;align=center;verticalAlign=middle;" parent="1UBmldHhn7O4GViiC7BB-7" connectable="0" vertex="1">
          <mxGeometry relative="1" as="geometry">
            <mxPoint x="331" y="1" as="offset" />
          </mxGeometry>
        </mxCell>
        <mxCell id="1UBmldHhn7O4GViiC7BB-11" value="" style="endArrow=block;html=1;rounded=0;startArrow=block;startFill=1;endFill=1;exitX=0;exitY=0;exitDx=190;exitDy=169.655;exitPerimeter=0;elbow=vertical;edgeStyle=orthogonalEdgeStyle;entryX=0.01;entryY=0.799;entryDx=0;entryDy=0;entryPerimeter=0;" parent="1" source="1UBmldHhn7O4GViiC7BB-4" target="ckAOM5WRGEyRrlcUhF3o-37" edge="1">
          <mxGeometry relative="1" as="geometry">
            <mxPoint x="-640" y="1845" as="sourcePoint" />
            <mxPoint x="-492.00000000000006" y="2200" as="targetPoint" />
            <Array as="points">
              <mxPoint x="-850" y="2080" />
              <mxPoint x="-566" y="2080" />
            </Array>
          </mxGeometry>
        </mxCell>
        <mxCell id="1UBmldHhn7O4GViiC7BB-12" value="HTTP 1.1" style="edgeLabel;resizable=0;html=1;;align=center;verticalAlign=middle;" parent="1UBmldHhn7O4GViiC7BB-11" connectable="0" vertex="1">
          <mxGeometry relative="1" as="geometry">
            <mxPoint x="-5" y="-1" as="offset" />
          </mxGeometry>
        </mxCell>
      </root>
    </mxGraphModel>
  </diagram>
  <diagram id="r73of5-hD1IQOn7HPmvm" name="Страница — 2">
    <mxGraphModel dx="987" dy="672" grid="1" gridSize="10" guides="1" tooltips="1" connect="1" arrows="1" fold="1" page="1" pageScale="1" pageWidth="827" pageHeight="1169" math="0" shadow="0">
      <root>
        <mxCell id="0" />
        <mxCell id="1" parent="0" />
      </root>
    </mxGraphModel>
  </diagram>
</mxfile>
